<?xml version="1.0" encoding="iso-8859-1"?>
<!-- Generator: Adobe Illustrator 16.0.4, SVG Export Plug-In . SVG Version: 6.00 Build 0)  -->
<!DOCTYPE svg PUBLIC "-//W3C//DTD SVG 1.1//EN" "http://www.w3.org/Graphics/SVG/1.1/DTD/svg11.dtd">
<svg version="1.1" id="Layer_1" xmlns="http://www.w3.org/2000/svg" xmlns:xlink="http://www.w3.org/1999/xlink" x="0px" y="0px"
	 width="91.77px" height="104.076px" viewBox="0 0 91.77 104.076" style="enable-background:new 0 0 91.77 104.076;"
	 xml:space="preserve">
<g>
	<g>
		<path style="fill:#FFFFFF;" d="M4.916,63.018c0-9.453,4.433-13.046,5.341-22.005C9.01,48.862,3.808,55.295,3.808,63.018
			c0,2.969,0.411,5.676,1.15,8.135c3.27,10.873,12.994,16.924,22.412,19.311C12.864,86.795,4.916,74.619,4.916,63.018z"/>
		<path style="fill:#FFFFFF;" d="M85.043,50.622c-1.762-4.278-3.693-8.142-3.693-12.893c0,11.504,5.504,14.759,5.504,25.289
			c0,11.602-7.947,23.777-22.454,27.445c13.083-3.309,23.481-12.889,23.481-27.445C87.881,58.086,86.522,54.209,85.043,50.622z"/>
	</g>
	<g>
		<path style="fill:#D1D3D3;" d="M83.084,17.165c-2.967-0.874-5.129-3.117-6.424-6.662l-3.006-8.23l-1.396,5.207
			c2.852,12.788,13.373,13.706,13.373,13.706l4.271-2.009L83.084,17.165z"/>
		<path style="fill:#D1D3D3;" d="M33.43,63.742l-5.507-8.436L21.808,59.9c0,0,2.141,0.059,2.141,2.303v15.885l4.317-3.242v-11.23
			l4.92,7.531l4.56-3.422V47.932l-4.315,3.24V63.742z"/>
		<path style="fill:#D1D3D3;" d="M50.929,45.346l-4.869,3.655v-7.316l-6.574,4.938c0,0,2.14,0.06,2.14,2.306v15.882l4.434-3.33
			v-7.238l4.869-3.656v7.24l4.22-3.17V34.86l-4.22,3.172V45.346z"/>
		<path style="fill:#D1D3D3;" d="M63.267,43.508V28.767l-6.576,4.938c0,0,2.14,0.059,2.14,2.302v15.885l12.242-9.195
			c-0.264-3.167,0-5.05,0-5.05L63.267,43.508z"/>
	</g>
	<g>
		
			<linearGradient id="SVGID_1_" gradientUnits="userSpaceOnUse" x1="12241.1914" y1="10961.5068" x2="12281.2871" y2="10961.5068" gradientTransform="matrix(0.2752 0 0 0.2752 -3367.7932 -2970.4812)">
			<stop  offset="0.1124" style="stop-color:#FFFFFF"/>
			<stop  offset="0.235" style="stop-color:#DDDFE1"/>
			<stop  offset="0.4393" style="stop-color:#A8AFB3"/>
			<stop  offset="0.5393" style="stop-color:#949CA1"/>
		</linearGradient>
		<path style="fill:url(#SVGID_1_);" d="M7.33,37.75c0,11.239-5.511,13.472-5.511,25.268c0,3.598,0.611,6.965,1.709,10.057
			c0.343-0.707,0.852-1.395,1.43-1.922c-0.739-2.459-1.15-5.166-1.15-8.135c0-7.723,5.202-14.156,6.448-22.005
			c0.102-1.021,0.164-2.107,0.164-3.284c0-8.968-4.281-16.543-4.281-16.543l-4.272-2.009l2.898,6.58
			C6.224,29.071,7.33,33.145,7.33,37.75z"/>
		<linearGradient id="SVGID_2_" gradientUnits="userSpaceOnUse" x1="85.6265" y1="50.6216" x2="85.6265" y2="19.1768">
			<stop  offset="0" style="stop-color:#FFFFFF"/>
			<stop  offset="0.3483" style="stop-color:#FFFFFF"/>
			<stop  offset="0.5618" style="stop-color:#949CA1"/>
			<stop  offset="1" style="stop-color:#949CA1"/>
		</linearGradient>
		<path style="fill:url(#SVGID_2_);" d="M81.35,37.729c0,4.75,1.932,8.614,3.693,12.893l2.299-0.074
			c-1.426-3.569-2.904-6.974-2.904-12.797c0-4.605,1.105-8.679,2.566-11.993l2.898-6.58l-4.271,2.009
			C85.631,21.186,81.35,28.761,81.35,37.729z"/>
		<linearGradient id="SVGID_3_" gradientUnits="userSpaceOnUse" x1="3.5283" y1="86.6172" x2="45.8843" y2="86.6172">
			<stop  offset="0.1517" style="stop-color:#FFFFFF"/>
			<stop  offset="0.212" style="stop-color:#FAFAFA"/>
			<stop  offset="0.2863" style="stop-color:#EBECED"/>
			<stop  offset="0.3681" style="stop-color:#D2D5D7"/>
			<stop  offset="0.4546" style="stop-color:#AFB5B9"/>
			<stop  offset="0.5112" style="stop-color:#949CA1"/>
		</linearGradient>
		<path style="fill:url(#SVGID_3_);" d="M42.521,93.912c-3.5-1.262-8.259-1.707-15.151-3.449
			c-9.418-2.387-19.142-8.438-22.412-19.311c-0.578,0.527-1.086,1.215-1.43,1.922c3.715,10.49,13.014,17.846,23.069,20.432
			c6.434,1.627,9.433,1.789,14.229,3.129c0.625,0.658,5.058,5.447,5.058,5.447v-4.59C45.884,97.492,42.97,94.334,42.521,93.912z"/>
		<linearGradient id="SVGID_4_" gradientUnits="userSpaceOnUse" x1="71.0142" y1="84.4775" x2="20.7971" y2="12.7601">
			<stop  offset="0" style="stop-color:#949CA1"/>
			<stop  offset="0.0259" style="stop-color:#9DA5AA"/>
			<stop  offset="0.1259" style="stop-color:#C2C7CB"/>
			<stop  offset="0.205" style="stop-color:#DADDDF"/>
			<stop  offset="0.2528" style="stop-color:#E4E5E6"/>
			<stop  offset="0.7528" style="stop-color:#E4E5E6"/>
			<stop  offset="0.7982" style="stop-color:#DCDEE0"/>
			<stop  offset="0.8685" style="stop-color:#C6CBCF"/>
			<stop  offset="0.9543" style="stop-color:#A6ADB2"/>
			<stop  offset="1" style="stop-color:#949CA1"/>
		</linearGradient>
		<path style="fill:url(#SVGID_4_);" d="M28.141,87.418c7.671,1.947,12.686,2.168,16.056,3.795c0,0,1.225,1.121,1.687,1.637
			c0.465-0.516,1.69-1.637,1.69-1.637c3.366-1.627,8.383-1.848,16.054-3.795c9.687-2.457,20.13-10.99,20.13-24.4
			c0-9.589-5.504-13.109-5.504-25.289c0-8.208,3.105-14.534,3.105-14.534s-7.162-1.446-10.496-10.509c0,0-4.753,4.435-11.309,4.435
			c-8.215,0-13.67-5.768-13.67-5.768s-5.455,5.768-13.667,5.768c-6.559,0-11.312-4.435-11.312-4.435
			C17.571,21.749,10.41,23.195,10.41,23.195s3.104,6.327,3.104,14.534c0,12.179-5.505,15.7-5.505,25.289
			C8.009,76.428,18.457,84.961,28.141,87.418z M80.245,63.018c0,11.375-9.062,18.852-17.483,20.992
			c-6.076,1.547-13.507,2.344-15.752,3.623c-0.505,0.369-1.125,1.027-1.125,1.027s-0.619-0.658-1.124-1.027
			c-2.246-1.279-9.678-2.076-15.752-3.623c-0.229-0.059-0.459-0.121-0.689-0.186l47.807-35.902
			C77.758,53.619,80.245,57.35,80.245,63.018z M76.84,25.113c-0.973,2.909-2.1,7.407-2.1,12.616c0,2.162,0.158,4.076,0.424,5.806
			L23.87,82.055c-6.427-3.301-12.051-9.643-12.333-18.35l58.95-44.27C72.543,22.29,74.903,24.052,76.84,25.113z M17.03,37.729
			c0-5.209-1.131-9.707-2.102-12.616c2.26-1.24,5.098-3.434,7.361-7.208c2.429,1.36,5.876,2.731,9.927,2.731
			c6.133,0,10.926-2.679,13.667-4.692c2.742,2.013,7.534,4.692,13.67,4.692c0.979,0,1.923-0.082,2.823-0.222L12.157,58.127
			C13.606,52.453,17.03,47.754,17.03,37.729z"/>
		<linearGradient id="SVGID_5_" gradientUnits="userSpaceOnUse" x1="18.1157" y1="8.1245" x2="45.8843" y2="8.1245">
			<stop  offset="0.2472" style="stop-color:#FFFFFF"/>
			<stop  offset="0.3376" style="stop-color:#FAFAFA"/>
			<stop  offset="0.4492" style="stop-color:#EBECED"/>
			<stop  offset="0.5718" style="stop-color:#D2D5D7"/>
			<stop  offset="0.7015" style="stop-color:#AFB5B9"/>
			<stop  offset="0.7865" style="stop-color:#949CA1"/>
		</linearGradient>
		<path style="fill:url(#SVGID_5_);" d="M32.217,13.977c8.244,0,13.667-7.007,13.667-7.007V2.586l-4.315,4.269
			c-2.218,2.194-5.768,3.985-9.352,3.985c-2.677,0-5.198-1.193-7.401-3.019l-6.701-5.548l1.394,5.207
			C19.51,7.479,25.82,13.977,32.217,13.977z"/>
		<linearGradient id="SVGID_6_" gradientUnits="userSpaceOnUse" x1="45.8843" y1="76.3145" x2="89.9497" y2="76.3145">
			<stop  offset="0.1966" style="stop-color:#FFFFFF"/>
			<stop  offset="0.3281" style="stop-color:#FAFBFB"/>
			<stop  offset="0.4746" style="stop-color:#EDEEEF"/>
			<stop  offset="0.6282" style="stop-color:#D7DADC"/>
			<stop  offset="0.7858" style="stop-color:#B8BDC0"/>
			<stop  offset="0.9326" style="stop-color:#949CA1"/>
		</linearGradient>
		<path style="fill:url(#SVGID_6_);" d="M87.881,63.018c0,14.557-10.398,24.137-23.481,27.445
			c-6.892,1.742-11.65,2.188-15.153,3.449c-0.449,0.422-3.362,3.58-3.362,3.58v4.59c0,0,4.433-4.789,5.058-5.447
			c4.797-1.34,7.792-1.502,14.231-3.129c13.018-3.35,24.776-14.693,24.776-30.488c0-5.684-1.281-9.148-2.607-12.47l-2.299,0.074
			C86.522,54.209,87.881,58.086,87.881,63.018z"/>
		<linearGradient id="SVGID_7_" gradientUnits="userSpaceOnUse" x1="45.8843" y1="8.1245" x2="73.6548" y2="8.1245">
			<stop  offset="0.2472" style="stop-color:#FFFFFF"/>
			<stop  offset="0.3376" style="stop-color:#FAFAFA"/>
			<stop  offset="0.4492" style="stop-color:#EBECED"/>
			<stop  offset="0.5719" style="stop-color:#D2D5D7"/>
			<stop  offset="0.7016" style="stop-color:#AFB5B9"/>
			<stop  offset="0.7865" style="stop-color:#949CA1"/>
		</linearGradient>
		<path style="fill:url(#SVGID_7_);" d="M59.555,13.977c6.395,0,12.704-6.497,12.704-6.497l1.396-5.207l-6.7,5.548
			c-2.206,1.826-4.725,3.019-7.4,3.019c-3.588,0-7.136-1.791-9.354-3.985l-4.316-4.269v4.383
			C45.884,6.969,51.31,13.977,59.555,13.977z"/>
		<linearGradient id="SVGID_8_" gradientUnits="userSpaceOnUse" x1="1.8662" y1="11.729" x2="19.5098" y2="11.729">
			<stop  offset="0.3876" style="stop-color:#FFFFFF"/>
			<stop  offset="0.4677" style="stop-color:#FAFAFA"/>
			<stop  offset="0.5665" style="stop-color:#EBECED"/>
			<stop  offset="0.6751" style="stop-color:#D2D5D7"/>
			<stop  offset="0.79" style="stop-color:#AFB5B9"/>
			<stop  offset="0.8652" style="stop-color:#949CA1"/>
		</linearGradient>
		<path style="fill:url(#SVGID_8_);" d="M19.51,7.479l-1.394-5.207l-3.007,8.23c-1.295,3.545-3.457,5.788-6.423,6.662l-6.819,2.012
			l4.272,2.009C6.139,21.186,16.659,20.267,19.51,7.479z"/>
	</g>
	<g>
		<path d="M5.973,37.75c0,10.808-5.51,13.266-5.51,25.268c0,17.293,13.37,28.607,25.796,31.805
			c6.277,1.527,8.173,1.631,13.843,3.025c0.464,0.498,5.783,6.229,5.783,6.229s5.32-5.73,5.784-6.229
			c5.668-1.395,7.565-1.498,13.842-3.025c12.425-3.197,25.798-14.512,25.798-31.805c0-12.001-5.514-14.46-5.514-25.268
			c0-3.903,0.826-7.754,2.451-11.446l3.523-7.994l-8.301-2.447c-2.531-0.748-4.393-2.709-5.533-5.826L74.268,0l-8.182,6.773
			C63.918,8.57,61.721,9.48,59.555,9.48c-2.898,0-6.195-1.409-8.399-3.59l-5.271-5.214l-5.27,5.214
			c-2.205,2.181-5.502,3.59-8.397,3.59c-2.169,0-4.366-0.91-6.536-2.707L17.5,0l-3.667,10.038c-1.137,3.117-3,5.078-5.534,5.826
			L0,18.311l3.521,7.994C5.148,29.996,5.973,33.847,5.973,37.75z M8.686,17.165c2.967-0.874,5.128-3.117,6.423-6.662l3.007-8.23
			l6.701,5.548c2.203,1.826,4.724,3.019,7.401,3.019c3.584,0,7.134-1.791,9.352-3.985l4.315-4.269L50.2,6.855
			c2.218,2.194,5.767,3.985,9.354,3.985c2.675,0,5.194-1.193,7.4-3.019l6.7-5.548l3.006,8.23c1.295,3.545,3.457,5.788,6.424,6.662
			l6.818,2.012l-2.898,6.58c-1.461,3.314-2.566,7.388-2.566,11.993c0,5.824,1.479,9.228,2.904,12.797
			c1.326,3.322,2.607,6.787,2.607,12.47c0,15.795-11.758,27.139-24.776,30.488c-6.439,1.627-9.435,1.789-14.231,3.129
			c-0.625,0.658-5.058,5.447-5.058,5.447s-4.432-4.789-5.058-5.447c-4.796-1.34-7.795-1.502-14.229-3.129
			C16.542,90.92,7.244,83.564,3.528,73.074c-1.098-3.092-1.709-6.459-1.709-10.057c0-11.795,5.511-14.028,5.511-25.268
			c0-4.605-1.106-8.679-2.566-11.993l-2.898-6.58L8.686,17.165z"/>
		<path d="M28.319,83.824c0.229,0.064,0.459,0.127,0.689,0.186c6.074,1.547,13.506,2.344,15.752,3.623
			c0.505,0.369,1.124,1.027,1.124,1.027s0.619-0.658,1.125-1.027c2.245-1.279,9.676-2.076,15.752-3.623
			c8.421-2.141,17.483-9.617,17.483-20.992c0-5.668-2.486-9.398-4.119-15.095L28.319,83.824z"/>
		<path d="M12.157,58.127l50.221-37.713c-0.9,0.14-1.845,0.222-2.823,0.222c-6.136,0-10.928-2.679-13.67-4.692
			c-2.741,2.013-7.534,4.692-13.667,4.692c-4.051,0-7.498-1.371-9.927-2.731c-2.264,3.774-5.101,5.968-7.361,7.208
			c0.97,2.909,2.102,7.407,2.102,12.616C17.03,47.754,13.606,52.453,12.157,58.127z"/>
		<path d="M23.87,82.055l51.295-38.52c-0.266-1.73-0.424-3.645-0.424-5.806c0-5.209,1.127-9.707,2.1-12.616
			c-1.938-1.061-4.297-2.824-6.354-5.678l-58.95,44.27C11.818,72.412,17.442,78.754,23.87,82.055z M63.267,28.767v14.742
			l7.806-5.862c0,0-0.264,1.883,0,5.05l-12.242,9.195V36.007c0-2.243-2.14-2.302-2.14-2.302L63.267,28.767z M46.06,41.686v7.316
			l4.869-3.655v-7.313l4.22-3.172v19.796l-4.22,3.17v-7.24l-4.869,3.656v7.238l-4.434,3.33V48.929c0-2.246-2.14-2.306-2.14-2.306
			L46.06,41.686z M27.923,55.307l5.507,8.436V51.171l4.315-3.24v19.793l-4.56,3.422l-4.92-7.531v11.23l-4.317,3.242V62.203
			c0-2.244-2.141-2.303-2.141-2.303L27.923,55.307z"/>
		<path d="M10.256,41.013c-0.908,8.959-5.341,12.552-5.341,22.005c0,11.602,7.948,23.777,22.454,27.445
			c6.892,1.742,11.65,2.188,15.151,3.449c0.45,0.422,3.364,3.58,3.364,3.58s2.914-3.158,3.362-3.58
			c3.503-1.262,8.262-1.707,15.153-3.449c14.507-3.668,22.454-15.844,22.454-27.445c0-10.53-5.504-13.784-5.504-25.289
			c0-8.968,4.281-16.543,4.281-16.543S75.11,20.267,72.258,7.479c0,0-6.309,6.497-12.704,6.497c-8.245,0-13.67-7.007-13.67-7.007
			s-5.423,7.007-13.667,7.007c-6.397,0-12.708-6.497-12.708-6.497C16.659,20.267,6.139,21.186,6.139,21.186
			s4.281,7.575,4.281,16.543C10.42,38.906,10.358,39.991,10.256,41.013z M10.41,23.195c0,0,7.161-1.446,10.496-10.509
			c0,0,4.752,4.435,11.312,4.435c8.212,0,13.667-5.768,13.667-5.768s5.455,5.768,13.67,5.768c6.556,0,11.309-4.435,11.309-4.435
			c3.334,9.063,10.496,10.509,10.496,10.509s-3.105,6.327-3.105,14.534c0,12.179,5.504,15.7,5.504,25.289
			c0,13.41-10.443,21.943-20.13,24.4c-7.671,1.947-12.688,2.168-16.054,3.795c0,0-1.225,1.121-1.69,1.637
			c-0.462-0.516-1.687-1.637-1.687-1.637c-3.371-1.627-8.385-1.848-16.056-3.795c-9.685-2.457-20.132-10.99-20.132-24.4
			c0-9.589,5.505-13.109,5.505-25.289C13.515,29.521,10.41,23.195,10.41,23.195z"/>
		<path style="fill:#FFFFFF;" d="M79.061,93.971c0,1.959,1.59,3.549,3.549,3.549s3.547-1.59,3.547-3.549s-1.588-3.547-3.547-3.547
			S79.061,92.012,79.061,93.971z M85.395,93.971c0,1.541-1.246,2.787-2.785,2.787c-1.541,0-2.785-1.246-2.785-2.787
			c0-1.539,1.244-2.783,2.785-2.783C84.149,91.188,85.395,92.432,85.395,93.971z"/>
		<path style="fill:#FFFFFF;" d="M81.155,95.996h0.76v-1.645h0.545l0.768,1.645h0.842l-0.803-1.715
			c0.467-0.166,0.803-0.611,0.803-1.133c0-0.666-0.541-1.203-1.205-1.203h-1.709V95.996z M81.915,92.705h0.949
			c0.244,0,0.443,0.199,0.443,0.443s-0.199,0.443-0.443,0.443h-0.949V92.705z"/>
	</g>
</g>
</svg>
